<svg width="21" height="21" viewBox="0 0 21 21" fill="none" xmlns="http://www.w3.org/2000/svg">
<path d="M9.65995 15.12C6.63595 15.12 4.19995 12.684 4.19995 9.65995C4.19995 6.63595 6.63595 4.19995 9.65995 4.19995C12.684 4.19995 15.12 6.63595 15.12 9.65995C15.12 12.684 12.684 15.12 9.65995 15.12ZM9.65995 5.03995C7.09795 5.03995 5.03995 7.09795 5.03995 9.65995C5.03995 12.222 7.09795 14.28 9.65995 14.28C12.222 14.28 14.28 12.222 14.28 9.65995C14.28 7.09795 12.222 5.03995 9.65995 5.03995Z" fill="black"/>
<path d="M13.7264 13.1321L17.498 16.9037L16.9042 17.4976L13.1326 13.726L13.7264 13.1321Z" fill="black"/>
</svg>
