<svg width="18" height="19" viewBox="0 0 18 19" fill="none" xmlns="http://www.w3.org/2000/svg">
<path d="M17.2938 15.0621C16.8423 14.0546 16.1871 13.1393 15.3646 12.3675C14.5446 11.5934 13.5733 10.9762 12.5042 10.55C12.4947 10.5455 12.4851 10.5432 12.4755 10.5387C13.9667 9.52399 14.9361 7.87111 14.9361 6.00627C14.9361 2.91699 12.2792 0.414001 9 0.414001C5.72077 0.414001 3.06387 2.91699 3.06387 6.00627C3.06387 7.87111 4.03328 9.52399 5.52449 10.541C5.51492 10.5455 5.50534 10.5477 5.49577 10.5522C4.42343 10.9784 3.46121 11.5895 2.63541 12.3697C1.81371 13.1422 1.15857 14.0573 0.706172 15.0644C0.261734 16.0504 0.0220377 17.1075 5.98544e-05 18.1785C-0.00057901 18.2025 0.00390188 18.2265 0.0132386 18.2489C0.0225753 18.2713 0.036579 18.2917 0.0544243 18.309C0.0722696 18.3262 0.0935956 18.3399 0.117146 18.3492C0.140696 18.3586 0.165993 18.3634 0.191548 18.3634H1.62771C1.73303 18.3634 1.8168 18.2845 1.8192 18.1875C1.86707 16.4467 2.60908 14.8163 3.92078 13.5806C5.27795 12.3021 7.08033 11.5985 9 11.5985C10.9197 11.5985 12.722 12.3021 14.0792 13.5806C15.3909 14.8163 16.1329 16.4467 16.1808 18.1875C16.1832 18.2867 16.267 18.3634 16.3723 18.3634H17.8085C17.834 18.3634 17.8593 18.3586 17.8829 18.3492C17.9064 18.3399 17.9277 18.3262 17.9456 18.309C17.9634 18.2917 17.9774 18.2713 17.9868 18.2489C17.9961 18.2265 18.0006 18.2025 17.9999 18.1785C17.976 17.1006 17.739 16.0521 17.2938 15.0621ZM9 9.88478C7.90134 9.88478 6.8673 9.48114 6.08938 8.74829C5.31146 8.01543 4.88301 7.04129 4.88301 6.00627C4.88301 4.97125 5.31146 3.99711 6.08938 3.26425C6.8673 2.5314 7.90134 2.12776 9 2.12776C10.0987 2.12776 11.1327 2.5314 11.9106 3.26425C12.6885 3.99711 13.117 4.97125 13.117 6.00627C13.117 7.04129 12.6885 8.01543 11.9106 8.74829C11.1327 9.48114 10.0987 9.88478 9 9.88478Z" fill="white"/>
</svg>
