<svg width="18" height="19" viewBox="0 0 18 19" fill="none" xmlns="http://www.w3.org/2000/svg">
<path d="M17.1818 4.90135H13.7045V4.54236C13.7045 2.26279 11.5977 0.414001 9 0.414001C6.40227 0.414001 4.29545 2.26279 4.29545 4.54236V4.90135H0.818182C0.365625 4.90135 0 5.22219 0 5.61932V17.6454C0 18.0425 0.365625 18.3634 0.818182 18.3634H17.1818C17.6344 18.3634 18 18.0425 18 17.6454V5.61932C18 5.22219 17.6344 4.90135 17.1818 4.90135ZM6.13636 4.54236C6.13636 3.15353 7.41733 2.02945 9 2.02945C10.5827 2.02945 11.8636 3.15353 11.8636 4.54236V4.90135H6.13636V4.54236ZM16.1591 16.7479H1.84091V6.51679H4.29545V8.49122C4.29545 8.58994 4.3875 8.67072 4.5 8.67072H5.93182C6.04432 8.67072 6.13636 8.58994 6.13636 8.49122V6.51679H11.8636V8.49122C11.8636 8.58994 11.9557 8.67072 12.0682 8.67072H13.5C13.6125 8.67072 13.7045 8.58994 13.7045 8.49122V6.51679H16.1591V16.7479Z" fill="white"/>
</svg>
